<?xml version="1.0" encoding="UTF-8"?>
<svg version="1.1" xmlns="http://www.w3.org/2000/svg" width="250" height="62">
<path d="M0 0 C1.28908506 2.57817012 0.8158581 4.15008241 0.01171875 6.84765625 C-2.14466521 11.4351758 -5.70443988 15.19094563 -9 19 C-7.35492782 19.19406478 -5.70890406 19.38007935 -4.0625 19.5625 C-3.14597656 19.66691406 -2.22945312 19.77132813 -1.28515625 19.87890625 C-0.53105469 19.91886719 0.22304687 19.95882813 1 20 C1.33 19.67 1.66 19.34 2 19 C6.52940945 18.60519098 11.08160964 18.52341129 15.625 18.375 C16.28561432 18.35287445 16.94622864 18.3307489 17.62686157 18.30795288 C38.50110753 17.62897832 38.50110753 17.62897832 46 19 C48 21 48 21 48.03515625 22.984375 C47 25 47 25 44.05859375 26.265625 C42.86363281 26.59046875 41.66867188 26.9153125 40.4375 27.25 C39.23996094 27.58515625 38.04242188 27.9203125 36.80859375 28.265625 C35.41833984 28.62914062 35.41833984 28.62914062 34 29 C36.91868176 30.68634946 39.74480128 32.09281347 43 33 C46.48038854 32.07231956 46.48038854 32.07231956 49 29 C49.56562809 27.30876688 50.12641095 25.61590922 50.68359375 23.921875 C51.99267578 21.23193359 51.99267578 21.23193359 54 19 C59.22301131 17.41883451 64.40606778 17.41476647 69.8125 17.375 C71.2833506 17.32868675 72.75406902 17.27795079 74.22460938 17.22265625 C77.81629942 17.0972196 81.4061281 17.03235151 85 17 C84.67 19.31 84.34 21.62 84 24 C82.02 24.66 80.04 25.32 78 26 C77.67 28.31 77.34 30.62 77 33 C84.85458014 28.65491311 88.52625031 21.49682771 93 14 C94.48148156 16.96296312 94.35808493 18.6653341 94 22 C92.57741669 25.42807161 90.80517696 28.63543918 89 31.875 C88.52304688 32.75414062 88.04609375 33.63328125 87.5546875 34.5390625 C86.38078576 36.6990417 85.19576677 38.85207214 84 41 C83.22785156 40.48695312 82.45570313 39.97390625 81.66015625 39.4453125 C80.34337891 38.72988281 80.34337891 38.72988281 79 38 C76.42383077 38.83046584 76.42383077 38.83046584 74 40 C71.6875 39.625 71.6875 39.625 70 39 C70.165 37.906875 70.33 36.81375 70.5 35.6875 C71.06718184 32.12474127 71.06718184 32.12474127 71 29 C59.09368396 31.19902939 59.09368396 31.19902939 50.19921875 38.59765625 C48.80004019 41.17597107 47.69016487 43.81659975 46.60546875 46.5390625 C44.87310505 50.2735497 43.30448896 51.65798355 40 54 C38.21037181 56.61857695 38.21037181 56.61857695 37 59 C36.34 58.67 35.68 58.34 35 58 C37.97 51.73 40.94 45.46 44 39 C42.80565523 39 41.61307364 39.10086737 40.421875 39.1875 C36.20291533 38.95632413 33.08461351 37.67246404 29.25 36 C24.77599009 33.85685991 24.77599009 33.85685991 20 33 C17.525 37.95 17.525 37.95 15 43 C14.01 42.34 13.02 41.68 12 41 C12.44602291 34.30965634 15.07345542 28.97187878 18 23 C15.69 23 13.38 23 11 23 C12.32 23.33 13.64 23.66 15 24 C14.3828125 25.953125 14.3828125 25.953125 13 28 C10.1796875 28.609375 10.1796875 28.609375 6.875 28.75 C5.77929688 28.80671875 4.68359375 28.8634375 3.5546875 28.921875 C2.71164063 28.94765625 1.86859375 28.9734375 1 29 C1 29.66 1 30.32 1 31 C1.60328125 30.855625 2.2065625 30.71125 2.828125 30.5625 C3.62734375 30.376875 4.4265625 30.19125 5.25 30 C6.03890625 29.814375 6.8278125 29.62875 7.640625 29.4375 C10 29 10 29 14 29 C13.67 30.32 13.34 31.64 13 33 C10.41932437 33.69918305 7.83627153 34.38461049 5.25 35.0625 C4.52039063 35.26166016 3.79078125 35.46082031 3.0390625 35.66601562 C-3.58413016 37.38202463 -3.58413016 37.38202463 -7 36 C-8 33 -8 33 -7.0625 30.8125 C-6.5365625 29.9153125 -6.5365625 29.9153125 -6 29 C-7.03640625 29.78246094 -8.0728125 30.56492187 -9.140625 31.37109375 C-10.51016874 32.39356134 -11.87997415 33.4156785 -13.25 34.4375 C-13.93191406 34.95376953 -14.61382812 35.47003906 -15.31640625 36.00195312 C-15.98027344 36.49501953 -16.64414063 36.98808594 -17.328125 37.49609375 C-18.23933105 38.17949829 -18.23933105 38.17949829 -19.16894531 38.87670898 C-21.16068371 40.0985741 -22.68357797 40.69749089 -25 41 C-27.75 39.5625 -27.75 39.5625 -30 38 C-29.41826169 33.87853199 -27.2088373 31.35005984 -24.6875 28.125 C-24.24962158 27.56490234 -23.81174316 27.00480469 -23.3605957 26.42773438 C-16.66286213 17.9407273 -9.73569911 9.56261118 -2 2 C-1.34 1.34 -0.68 0.68 0 0 Z M23 23 C23 23.99 23 24.98 23 26 C24.258125 25.87625 25.51625 25.7525 26.8125 25.625 C27.52019531 25.55539063 28.22789063 25.48578125 28.95703125 25.4140625 C31.29988142 25.07334609 31.29988142 25.07334609 34 23 C30.37 23 26.74 23 23 23 Z M58 24 C57.67 25.32 57.34 26.64 57 28 C58.75140143 27.54705135 60.50107344 27.08741252 62.25 26.625 C63.22453125 26.36976562 64.1990625 26.11453125 65.203125 25.8515625 C67.65837303 25.10401491 69.75617405 24.22876183 72 23 C67.1666528 22.91666643 62.76307437 23.04738513 58 24 Z M-16.3125 27 C-16.869375 27.99 -17.42625 28.98 -18 30 C-14.56404834 28.47291037 -11.88087546 26.40072955 -9 24 C-13.08959863 23.31840023 -13.69160411 23.59991884 -16.3125 27 Z M45 35 C46 37 46 37 46 37 Z " fill="#E3E727" transform="translate(94,2)"/>
<path d="M0 0 C1.28908506 2.57817012 0.8158581 4.15008241 0.01171875 6.84765625 C-2.14466521 11.4351758 -5.70443988 15.19094563 -9 19 C-7.35492782 19.19406478 -5.70890406 19.38007935 -4.0625 19.5625 C-3.14597656 19.66691406 -2.22945312 19.77132813 -1.28515625 19.87890625 C-0.53105469 19.91886719 0.22304687 19.95882813 1 20 C1.33 19.67 1.66 19.34 2 19 C4.86267567 18.92674832 7.700719 18.90761795 10.5625 18.9375 C11.36880859 18.94201172 12.17511719 18.94652344 13.00585938 18.95117188 C15.00393756 18.96299482 17.00197783 18.98093086 19 19 C19 19.99 19 20.98 19 22 C15.04 22.495 15.04 22.495 11 23 C12.32 23.33 13.64 23.66 15 24 C14.3828125 25.953125 14.3828125 25.953125 13 28 C10.1796875 28.609375 10.1796875 28.609375 6.875 28.75 C5.77929688 28.80671875 4.68359375 28.8634375 3.5546875 28.921875 C2.71164063 28.94765625 1.86859375 28.9734375 1 29 C1 29.66 1 30.32 1 31 C1.60328125 30.855625 2.2065625 30.71125 2.828125 30.5625 C3.62734375 30.376875 4.4265625 30.19125 5.25 30 C6.03890625 29.814375 6.8278125 29.62875 7.640625 29.4375 C10 29 10 29 14 29 C13.67 30.32 13.34 31.64 13 33 C10.41932437 33.69918305 7.83627153 34.38461049 5.25 35.0625 C4.52039063 35.26166016 3.79078125 35.46082031 3.0390625 35.66601562 C-3.58413016 37.38202463 -3.58413016 37.38202463 -7 36 C-8 33 -8 33 -7.0625 30.8125 C-6.5365625 29.9153125 -6.5365625 29.9153125 -6 29 C-7.03640625 29.78246094 -8.0728125 30.56492187 -9.140625 31.37109375 C-10.51016874 32.39356134 -11.87997415 33.4156785 -13.25 34.4375 C-13.93191406 34.95376953 -14.61382812 35.47003906 -15.31640625 36.00195312 C-15.98027344 36.49501953 -16.64414063 36.98808594 -17.328125 37.49609375 C-18.23933105 38.17949829 -18.23933105 38.17949829 -19.16894531 38.87670898 C-21.16068371 40.0985741 -22.68357797 40.69749089 -25 41 C-27.75 39.5625 -27.75 39.5625 -30 38 C-29.41826169 33.87853199 -27.2088373 31.35005984 -24.6875 28.125 C-24.24962158 27.56490234 -23.81174316 27.00480469 -23.3605957 26.42773438 C-16.66286213 17.9407273 -9.73569911 9.56261118 -2 2 C-1.34 1.34 -0.68 0.68 0 0 Z M-16.3125 27 C-16.869375 27.99 -17.42625 28.98 -18 30 C-14.56404834 28.47291037 -11.88087546 26.40072955 -9 24 C-13.08959863 23.31840023 -13.69160411 23.59991884 -16.3125 27 Z " fill="#DAE432" transform="translate(94,2)"/>
<path d="M0 0 C0.928125 0.515625 1.85625 1.03125 2.8125 1.5625 C2.4825 2.5525 2.1525 3.5425 1.8125 4.5625 C-0.31567383 5.31176758 -0.31567383 5.31176758 -3.08203125 5.89453125 C-9.29342105 7.43506847 -14.36547134 10.05636895 -19.875 13.25 C-20.77927734 13.76111328 -21.68355469 14.27222656 -22.61523438 14.79882812 C-24.81237954 16.04271454 -27.00265119 17.29718197 -29.1875 18.5625 C-22.78121093 18.65416391 -16.54531562 18.67119543 -10.1875 17.8125 C-6.26995709 17.38357194 -5.52168315 17.35936906 -2 19.5 C-1.401875 20.180625 -0.80375 20.86125 -0.1875 21.5625 C-0.86816406 23.51074219 -0.86816406 23.51074219 -2.1875 25.5625 C-4.45214844 26.20019531 -4.45214844 26.20019531 -7.296875 26.390625 C-8.87891724 26.50736572 -8.87891724 26.50736572 -10.49291992 26.62646484 C-12.19798706 26.71855225 -12.19798706 26.71855225 -13.9375 26.8125 C-15.67833862 26.92198975 -15.67833862 26.92198975 -17.4543457 27.03369141 C-21.03131173 27.24196365 -24.607705 27.41101096 -28.1875 27.5625 C-29.80567627 27.63259277 -29.80567627 27.63259277 -31.45654297 27.70410156 C-34.42972478 27.81548473 -37.40020957 27.88732281 -40.375 27.9375 C-41.26348633 27.96360352 -42.15197266 27.98970703 -43.06738281 28.01660156 C-48.94964562 28.03244452 -52.32401351 26.89257329 -57.1875 23.5625 C-57.1875 23.2325 -57.1875 22.9025 -57.1875 22.5625 C-56.5790625 22.43875 -55.970625 22.315 -55.34375 22.1875 C-47.15807466 20.26145874 -40.09947526 16.71725377 -32.70410156 12.86328125 C-27.61916626 10.23497942 -22.49380436 7.68650146 -17.375 5.125 C-16.31837158 4.59269775 -15.26174316 4.06039551 -14.1730957 3.51196289 C-13.18140381 3.0143042 -12.18971191 2.51664551 -11.16796875 2.00390625 C-10.28004639 1.55732666 -9.39212402 1.11074707 -8.47729492 0.65063477 C-3.64705072 -1.64474837 -3.64705072 -1.64474837 0 0 Z " fill="#D8E336" transform="translate(57.1875,8.4375)"/>
<path d="M0 0 C0 0.99 0 1.98 0 3 C-4.31208727 7.15565509 -9.13800624 9.96671949 -14.375 12.8125 C-15.11105469 13.21919922 -15.84710938 13.62589844 -16.60546875 14.04492188 C-18.40049288 15.03568194 -20.19980842 16.01866041 -22 17 C-21.19433594 17.44214844 -20.38867188 17.88429688 -19.55859375 18.33984375 C-17 20 -17 20 -16.0625 22.5625 C-15.711875 23.366875 -15.36125 24.17125 -15 25 C-14.18015625 25.26941406 -13.3603125 25.53882812 -12.515625 25.81640625 C-7.8317159 27.39332231 -3.89361834 29.81152772 0.3125 32.375 C1.54709961 33.09816406 1.54709961 33.09816406 2.80664062 33.8359375 C3.58845703 34.3103125 4.37027344 34.7846875 5.17578125 35.2734375 C6.24179565 35.91418213 6.24179565 35.91418213 7.3293457 36.56787109 C9.32916451 38.2821685 9.6339835 39.43411822 10 42 C0.08751903 37.16835774 -9.64065802 32.07864501 -19.25878906 26.68237305 C-23.10224961 24.53724836 -26.83660449 22.47541918 -31 21 C-32.32 23.64 -33.64 26.28 -35 29 C-37.475 28.01 -37.475 28.01 -40 27 C-37.86233829 19.755702 -34.77315981 13.53281715 -31 7 C-28.03 7.495 -28.03 7.495 -25 8 C-25.33 9.32 -25.66 10.64 -26 12 C-17.07903637 8.45448881 -8.53114607 4.37915338 0 0 Z " fill="#DCE530" transform="translate(240,12)"/>
<path d="M0 0 C0.99 0 1.98 0 3 0 C3 2.31 3 4.62 3 7 C3.42410156 6.566875 3.84820312 6.13375 4.28515625 5.6875 C7.63890417 2.50328219 9.18370188 1.07774268 13.9375 0.625 C15.4534375 0.810625 15.4534375 0.810625 17 1 C15.63454801 3.96973454 14.05289522 6.32827873 11.953125 8.828125 C11.355 9.54613281 10.756875 10.26414062 10.140625 11.00390625 C9.51671875 11.74511719 8.8928125 12.48632812 8.25 13.25 C7.02426428 14.71205341 5.80029415 16.1755889 4.578125 17.640625 C3.67767456 18.71932861 3.67767456 18.71932861 2.7590332 19.81982422 C0.53947339 22.57078455 -1.51388568 25.42548 -3.53344727 28.32568359 C-5.6869996 30.7843255 -8.19360587 31.9554865 -11.16796875 33.2109375 C-13.27529081 34.05329674 -13.27529081 34.05329674 -16 36 C-14.62489946 33.04575973 -13.02686977 30.56863017 -11.03125 27.99609375 C-10.46019531 27.25552734 -9.88914062 26.51496094 -9.30078125 25.75195312 C-8.70652344 24.98818359 -8.11226562 24.22441406 -7.5 23.4375 C-6.32212764 21.91597507 -5.14501303 20.39386316 -3.96875 18.87109375 C-3.44732422 18.20005615 -2.92589844 17.52901855 -2.38867188 16.83764648 C-1.20168399 15.26689089 -0.09209938 13.63814906 1 12 C0.2575 11.4740625 0.2575 11.4740625 -0.5 10.9375 C-2.76982201 8.00564656 -2.3264586 5.59104465 -2 2 C-1.34 1.34 -0.68 0.68 0 0 Z " fill="#EBE91F" transform="translate(58,20)"/>
<path d="M0 0 C1.48148156 2.96296312 1.35808493 4.6653341 1 8 C-0.42258331 11.42807161 -2.19482304 14.63543918 -4 17.875 C-4.47695312 18.75414063 -4.95390625 19.63328125 -5.4453125 20.5390625 C-6.61921424 22.6990417 -7.80423323 24.85207214 -9 27 C-9.77214844 26.48695312 -10.54429687 25.97390625 -11.33984375 25.4453125 C-12.21769531 24.96835937 -13.09554687 24.49140625 -14 24 C-16.57616923 24.83046584 -16.57616923 24.83046584 -19 26 C-21.3125 25.625 -21.3125 25.625 -23 25 C-21.7826087 15.7826087 -21.7826087 15.7826087 -19 13 C-18.01 12.34 -17.02 11.68 -16 11 C-15.01 11.33 -14.02 11.66 -13 12 C-13.66 12 -14.32 12 -15 12 C-15.33 14.31 -15.66 16.62 -16 19 C-8.14541986 14.65491311 -4.47374969 7.49682771 0 0 Z " fill="#D9E434" transform="translate(187,16)"/>
<path d="M0 0 C0.99 0.33 1.98 0.66 3 1 C3.73046875 2.84765625 3.73046875 2.84765625 4.1875 5.0625 C4.34605469 5.79597656 4.50460938 6.52945312 4.66796875 7.28515625 C4.77753906 7.85105469 4.88710937 8.41695312 5 9 C5.433125 8.4225 5.86625 7.845 6.3125 7.25 C7.1478125 6.13625 7.1478125 6.13625 8 5 C8.474375 4.2575 8.94875 3.515 9.4375 2.75 C9.953125 2.1725 10.46875 1.595 11 1 C12.32 1 13.64 1 15 1 C14.39733215 5.50727647 12.63400206 8.8587963 10.4375 12.8125 C10.10814453 13.40998047 9.77878906 14.00746094 9.43945312 14.62304688 C8.63226733 16.08533998 7.81695083 17.5431399 7 19 C4.58203125 18.66015625 4.58203125 18.66015625 2 18 C0.6875 15.4375 0.6875 15.4375 0 13 C-0.37125 13.804375 -0.7425 14.60875 -1.125 15.4375 C-3 18 -3 18 -6.1875 18.8125 C-7.115625 18.874375 -8.04375 18.93625 -9 19 C-7.6077541 14.37324343 -5.70479016 10.35313769 -3.375 6.125 C-2.74335938 4.97257812 -2.11171875 3.82015625 -1.4609375 2.6328125 C-0.97882813 1.76398437 -0.49671875 0.89515625 0 0 Z " fill="#EAE91F" transform="translate(190,21)"/>
<path d="M0 0 C3.125 0.375 3.125 0.375 6 1 C4.57181004 2.90425328 3.14205942 4.80695908 1.703125 6.703125 C0.61691717 8.16801079 -0.43902514 9.65617736 -1.453125 11.171875 C-4.50770922 15.63626732 -7.15829284 18.09639974 -12.16796875 20.2109375 C-14.27529081 21.05329674 -14.27529081 21.05329674 -17 23 C-15.62139787 20.04195621 -14.01822808 17.5465879 -12.03125 14.9609375 C-11.46019531 14.21585938 -10.88914062 13.47078125 -10.30078125 12.703125 C-9.70652344 11.93484375 -9.11226562 11.1665625 -8.5 10.375 C-7.90574219 9.59898438 -7.31148437 8.82296875 -6.69921875 8.0234375 C-2.28847509 2.28847509 -2.28847509 2.28847509 0 0 Z " fill="#D8E336" transform="translate(59,33)"/>
<path d="M0 0 C0.66 0.33 1.32 0.66 2 1 C1.67 1.33 1.34 1.66 1 2 C2.32 2 3.64 2 5 2 C5 2.66 5 3.32 5 4 C5.60328125 3.855625 6.2065625 3.71125 6.828125 3.5625 C7.62734375 3.376875 8.4265625 3.19125 9.25 3 C10.43335937 2.7215625 10.43335937 2.7215625 11.640625 2.4375 C14 2 14 2 18 2 C17.67 3.32 17.34 4.64 17 6 C14.41932437 6.69918305 11.83627153 7.38461049 9.25 8.0625 C8.52039063 8.26166016 7.79078125 8.46082031 7.0390625 8.66601562 C0.41586984 10.38202463 0.41586984 10.38202463 -3 9 C-3.33 8.01 -3.66 7.02 -4 6 C-2.0625 2.8125 -2.0625 2.8125 0 0 Z " fill="#BADB5B" transform="translate(90,29)"/>
<path d="M0 0 C5.67566221 1.55874406 10.33046611 4.33863612 15.3125 7.375 C16.54709961 8.09816406 16.54709961 8.09816406 17.80664062 8.8359375 C18.58845703 9.3103125 19.37027344 9.7846875 20.17578125 10.2734375 C20.88645752 10.70060059 21.59713379 11.12776367 22.3293457 11.56787109 C24.32916451 13.2821685 24.6339835 14.43411822 25 17 C23.01501949 16.07487334 21.03713982 15.13449763 19.0625 14.1875 C17.96035156 13.66542969 16.85820312 13.14335938 15.72265625 12.60546875 C13 11 13 11 12 8 C9.4835404 6.38413098 9.4835404 6.38413098 6.5 4.9375 C1.10181191 2.20362381 1.10181191 2.20362381 0 0 Z " fill="#54BDD7" transform="translate(225,37)"/>
<path d="M0 0 C1.4540625 0.0309375 1.4540625 0.0309375 2.9375 0.0625 C1.8125 3 1.8125 3 -0.0625 6.0625 C-3.25 6.9375 -3.25 6.9375 -6.0625 7.0625 C-3.83347902 0.07823427 -3.83347902 0.07823427 0 0 Z " fill="#CAE047" transform="translate(187.0625,32.9375)"/>
<path d="M0 0 C-0.33 1.32 -0.66 2.64 -1 4 C-4.63 4 -8.26 4 -12 4 C-10 1 -10 1 -7.125 0.3125 C-4 0 -4 0 0 0 Z " fill="#F1EA17" transform="translate(108,31)"/>
<path d="M0 0 C5.85272256 0.45020943 10.08220119 3.03839227 15 6 C13.359375 6.68359375 13.359375 6.68359375 11 7 C8.203125 5.78515625 8.203125 5.78515625 5.25 4.0625 C4.26515625 3.49660156 3.2803125 2.93070313 2.265625 2.34765625 C1.51796875 1.90292969 0.7703125 1.45820312 0 1 C0 0.67 0 0.34 0 0 Z " fill="#B8DB5C" transform="translate(225,40)"/>
<path d="M0 0 C6.75 0.75 6.75 0.75 9 3 C8.67 3.99 8.34 4.98 8 6 C5.36 4.68 2.72 3.36 0 2 C0 1.34 0 0.68 0 0 Z " fill="#AED868" transform="translate(241,48)"/>
<path d="M0 0 C0.99 0.66 1.98 1.32 3 2 C3.1875 4.625 3.1875 4.625 3 7 C1.1875 7.625 1.1875 7.625 -1 8 C-1.99 7.34 -2.98 6.68 -4 6 C-3.34 6 -2.68 6 -2 6 C-2 4.35 -2 2.7 -2 1 C-1.34 0.67 -0.68 0.34 0 0 Z M-1 2 C-0.67 3.65 -0.34 5.3 0 7 C0.33 7 0.66 7 1 7 C1 5.35 1 3.7 1 2 C0.34 2 -0.32 2 -1 2 Z " fill="#4EC0DD" transform="translate(173,46)"/>
<path d="M0 0 C0.33 0.66 0.66 1.32 1 2 C3.02463255 2.65213292 3.02463255 2.65213292 5 3 C4.34 4.32 3.68 5.64 3 7 C0.525 6.01 0.525 6.01 -2 5 C-1.34 3.35 -0.68 1.7 0 0 Z " fill="#9DD37C" transform="translate(202,34)"/>
<path d="M0 0 C0.66 0.33 1.32 0.66 2 1 C1.67 1.33 1.34 1.66 1 2 C2.32 2 3.64 2 5 2 C5 2.66 5 3.32 5 4 C2.09399739 5.25664978 0.20395416 6 -3 6 C-1.125 1.125 -1.125 1.125 0 0 Z " fill="#85CC9C" transform="translate(90,29)"/>
<path d="M0 0 C1.5 1.25 1.5 1.25 3 3 C3 4.66666667 3 6.33333333 3 8 C1.35 8 -0.3 8 -2 8 C-1.01 6.02 -0.02 4.04 1 2 C0.01 2.33 -0.98 2.66 -2 3 C-2 2.34 -2 1.68 -2 1 C-1.34 0.67 -0.68 0.34 0 0 Z " fill="#52BDDB" transform="translate(153,46)"/>
<path d="M0 0 C1.65 0 3.3 0 5 0 C4.40138258 2.35171131 3.73075648 4.6859378 3 7 C2.01 7.495 2.01 7.495 1 8 C1.33 6.35 1.66 4.7 2 3 C1.34 3 0.68 3 0 3 C0 2.01 0 1.02 0 0 Z " fill="#51BDDC" transform="translate(191,46)"/>
<path d="M0 0 C1.32 0 2.64 0 4 0 C3.74438677 2.3431213 3.40729228 4.67843403 3 7 C2.01 7.495 2.01 7.495 1 8 C1.33 6.35 1.66 4.7 2 3 C1.34 3 0.68 3 0 3 C0 2.01 0 1.02 0 0 Z " fill="#52BEDC" transform="translate(211,46)"/>
<path d="M0 0 C0 0.99 0 1.98 0 3 C-0.66 2.67 -1.32 2.34 -2 2 C-1.34 1.34 -0.68 0.68 0 0 Z " fill="#B6DA60" transform="translate(41,56)"/>
<path d="M0 0 C0.33 0.66 0.66 1.32 1 2 C0.34 1.67 -0.32 1.34 -1 1 C-0.67 0.67 -0.34 0.34 0 0 Z " fill="#5BBFDE" transform="translate(168,50)"/>
<path d="M0 0 C3 1 3 1 3 1 Z " fill="#52BFDA" transform="translate(239,17)"/>
<path d="M0 0 C2 1 2 1 2 1 Z " fill="#50BEDD" transform="translate(180,52)"/>
<path d="M0 0 C2 1 2 1 2 1 Z " fill="#52BEDC" transform="translate(186,50)"/>
<path d="" fill="#33CCCC" transform="translate(0,0)"/>
<path d="" fill="#55C6E3" transform="translate(0,0)"/>
<path d="" fill="#52BEDC" transform="translate(0,0)"/>
<path d="" fill="#52BEDC" transform="translate(0,0)"/>
<path d="" fill="#52BFDC" transform="translate(0,0)"/>
<path d="" fill="#46B9D1" transform="translate(0,0)"/>
<path d="" fill="#52BEDC" transform="translate(0,0)"/>
<path d="" fill="#49DBDB" transform="translate(0,0)"/>
</svg>
